<svg width="30" height="30" viewBox="0 0 30 30" fill="none" xmlns="http://www.w3.org/2000/svg">
<path d="M28.5938 0H1.40625C0.630937 0 0 0.630937 0 1.40625V8.90625C0 9.68156 0.630937 10.3125 1.40625 10.3125H28.5938C29.3691 10.3125 30 9.68156 30 8.90625V1.40625C30 0.630937 29.3691 0 28.5938 0ZM29.0625 8.90625C29.0625 9.16406 28.8516 9.375 28.5938 9.375H1.40625C1.14844 9.375 0.9375 9.16406 0.9375 8.90625V1.40625C0.9375 1.14844 1.14844 0.9375 1.40625 0.9375H28.5938C28.8516 0.9375 29.0625 1.14844 29.0625 1.40625V8.90625Z" fill="#1D4ED8"/>
<path d="M29.5312 11.7188C29.2725 11.7188 29.0625 11.9288 29.0625 12.1875V28.5938C29.0625 28.8516 28.8516 29.0625 28.5938 29.0625H1.40625C1.14844 29.0625 0.9375 28.8516 0.9375 28.5938V12.1875C0.9375 11.9288 0.7275 11.7188 0.46875 11.7188C0.21 11.7188 0 11.9288 0 12.1875V28.5938C0 29.3691 0.630937 30 1.40625 30H28.5938C29.3691 30 30 29.3691 30 28.5938V12.1875C30 11.9288 29.79 11.7188 29.5312 11.7188Z" fill="#1D4ED8"/>
<path d="M12.6562 25.3125C13.4316 25.3125 14.0625 24.6816 14.0625 23.9062V16.4062C14.0625 15.6309 13.4316 15 12.6562 15H5.15625C4.38094 15 3.75 15.6309 3.75 16.4062V23.9062C3.75 24.6816 4.38094 25.3125 5.15625 25.3125H12.6562ZM4.6875 23.9062V16.4062C4.6875 16.1484 4.89844 15.9375 5.15625 15.9375H12.6562C12.9141 15.9375 13.125 16.1484 13.125 16.4062V23.9062C13.125 24.1641 12.9141 24.375 12.6562 24.375H5.15625C4.89844 24.375 4.6875 24.1641 4.6875 23.9062Z" fill="#1D4ED8"/>
<path d="M16.875 16.875H25.3125C25.5712 16.875 25.7812 16.665 25.7812 16.4062C25.7812 16.1475 25.5712 15.9375 25.3125 15.9375H16.875C16.6163 15.9375 16.4062 16.1475 16.4062 16.4062C16.4062 16.665 16.6163 16.875 16.875 16.875Z" fill="#1D4ED8"/>
<path d="M16.875 20.625H25.3125C25.5712 20.625 25.7812 20.415 25.7812 20.1562C25.7812 19.8975 25.5712 19.6875 25.3125 19.6875H16.875C16.6163 19.6875 16.4062 19.8975 16.4062 20.1562C16.4062 20.415 16.6163 20.625 16.875 20.625Z" fill="#1D4ED8"/>
<path d="M16.875 24.375H25.3125C25.5712 24.375 25.7812 24.165 25.7812 23.9062C25.7812 23.6475 25.5712 23.4375 25.3125 23.4375H16.875C16.6163 23.4375 16.4062 23.6475 16.4062 23.9062C16.4062 24.165 16.6163 24.375 16.875 24.375Z" fill="#1D4ED8"/>
</svg>
